<?xml version="1.0" standalone="no"?>
<!DOCTYPE svg PUBLIC "-//W3C//DTD SVG 20010904//EN"
 "http://www.w3.org/TR/2001/REC-SVG-20010904/DTD/svg10.dtd">
<svg version="1.0" xmlns="http://www.w3.org/2000/svg"
 width="1650.000000pt" height="1650.000000pt" viewBox="0 0 1650.000000 1650.000000"
 preserveAspectRatio="xMidYMid meet">
<metadata>
Created by potrace 1.14, written by Peter Selinger 2001-2017
</metadata>
<g transform="translate(0.000000,1650.000000) scale(0.100000,-0.100000)"
fill="#000000" stroke="none">
<path d="M4188 14525 c-2 -2 -39 -6 -83 -9 -44 -3 -93 -8 -110 -11 -117 -20
-167 -29 -215 -42 -30 -8 -65 -16 -77 -19 -23 -4 -194 -62 -248 -84 -16 -6
-30 -11 -30 -10 0 5 -253 -125 -301 -155 -67 -43 -177 -116 -184 -125 -3 -3
-32 -25 -65 -49 -88 -65 -319 -302 -402 -412 -207 -275 -352 -591 -418 -906
-9 -43 -19 -87 -21 -98 -4 -20 -8 -47 -24 -170 -10 -82 -8 -9342 2 -9395 4
-19 10 -53 13 -75 4 -22 9 -53 11 -70 23 -140 117 -446 165 -534 4 -9 28 -57
52 -106 52 -106 149 -264 213 -345 249 -316 508 -528 850 -695 243 -119 538
-201 804 -223 117 -9 9217 -9 9310 1 114 12 153 16 180 23 14 3 36 8 50 10 89
13 248 58 374 105 708 267 1237 849 1431 1576 29 106 29 106 40 173 19 113 22
134 31 230 10 107 10 9136 0 9284 -4 60 -8 112 -10 115 -2 3 -7 31 -11 61 -21
182 -105 441 -211 658 -301 613 -852 1061 -1509 1227 -123 31 -157 37 -257 51
-24 3 -56 8 -73 11 -28 6 -9271 14 -9277 8z"/>
</g>
</svg>
